<svg version="1.1" id="Layer_1" xmlns="http://www.w3.org/2000/svg" xmlns:xlink="http://www.w3.org/1999/xlink" x="0px" y="0px"
	 viewBox="0 0 540 540" style="enable-background:new 0 0 540 540;" xml:space="preserve">
    <style type="text/css">
	.st0{fill:#ED2024;}
</style>

	<path class="st0" d="M158.7,359.9c86,1.5,100.6,0,109.4-8.7c6.3-6.3,9.7-16.5,21.4-74.4l20.9-105h-90.4l11.2-54.9h139.5
		c-28.9-19-63.4-30.1-100.6-30.1c-101.2,0-183.2,82-183.2,183.2c0,55.7,24.8,105.5,64,139.1L158.7,359.9z"/>
	<path class="st0" d="M388.8,130.5l-27.4,139.4c-18,93.3-25.3,107.9-38.9,121.5c-19.1,19.1-58.9,31.3-153.1,31.7
		c28.9,19,63.5,30.1,100.6,30.1c101.2,0,183.2-82,183.2-183.2C453.2,214.1,428.2,164.1,388.8,130.5z"/>

</svg>
