<?xml version="1.0" encoding="utf-8"?>
<!-- Generator: Adobe Illustrator 24.1.2, SVG Export Plug-In . SVG Version: 6.00 Build 0)  -->
<svg version="1.1" id="Layer_1" xmlns="http://www.w3.org/2000/svg" xmlns:xlink="http://www.w3.org/1999/xlink" x="0px" y="0px"
	 viewBox="0 0 540 540" style="enable-background:new 0 0 540 540;" xml:space="preserve">
<style type="text/css">
	.st0{fill:#ED2024;}
</style>
<g>
	<path class="st0" d="M117.6,393c117.8,2,137.7,0,149.7-12c8.6-8.7,13.3-22.6,29.3-101.8l28.6-143.7H201.5l15.3-75.2h191
		c-39.5-26-86.9-41.2-137.7-41.2C131.4,19.1,19.1,131.4,19.1,270c0,76.2,34,144.5,87.6,190.5L117.6,393z"/>
	<path class="st0" d="M432.7,79l-37.6,190.9c-24.6,127.8-34.6,147.7-53.2,166.4c-26.1,26.1-80.6,42.9-209.6,43.4
		c39.5,26,86.9,41.2,137.8,41.2c138.6,0,250.9-112.3,250.9-250.9C520.9,193.5,486.6,125,432.7,79z"/>
</g>
</svg>
